<mxfile host="app.diagrams.net" modified="2023-05-06T11:53:06.670Z" agent="Mozilla/5.0 (Macintosh; Intel Mac OS X 10_15_7) AppleWebKit/605.1.15 (KHTML, like Gecko) Version/15.6.1 Safari/605.1.15" etag="thpKQXMAlqIn2LPj3iBe" version="21.2.9" type="github">
  <diagram name="第 1 页" id="7lDBrwrQF6s3sXzAjkwr">
    <mxGraphModel dx="1422" dy="1073" grid="1" gridSize="10" guides="1" tooltips="1" connect="1" arrows="1" fold="1" page="1" pageScale="1" pageWidth="827" pageHeight="1169" math="0" shadow="0">
      <root>
        <mxCell id="0" />
        <mxCell id="1" parent="0" />
      </root>
    </mxGraphModel>
  </diagram>
</mxfile>
